<svg xmlns="http://www.w3.org/2000/svg" viewBox="0 0 108.63 20.14">
<defs><style>.cls-1{fill:#F9FAFB;}</style></defs><g id="Layer_2" data-name="Layer 2"><g id="Layer_1-2" data-name="Layer 1"><path class="cls-1" d="M11.67,18.77a.72.72,0,0,1-.42.9,8.47,8.47,0,0,1-3,.47,6.63,6.63,0,0,1-4.64-1.48A5.76,5.76,0,0,1,2,14.2V10.45H0V6H2V1.93H7.89V6h2.94v4.42H7.89v3.69a1.49,1.49,0,0,0,.34,1,1.16,1.16,0,0,0,.89.37,2.41,2.41,0,0,0,.72-.1.68.68,0,0,1,.86.4Z"/><path class="cls-1" d="M16.27,19.17a7.52,7.52,0,0,1-3-2.71,7.23,7.23,0,0,1-1.07-3.92,7.24,7.24,0,0,1,1.07-3.93,7.33,7.33,0,0,1,3-2.69,9.33,9.33,0,0,1,4.28-1,9.39,9.39,0,0,1,4.31,1,7.24,7.24,0,0,1,3,2.69,7.41,7.41,0,0,1,1.06,3.93,7.22,7.22,0,0,1-4,6.63,9.27,9.27,0,0,1-4.31,1A9.21,9.21,0,0,1,16.27,19.17Zm6-4.5a3.15,3.15,0,0,0,.65-2.13,3.09,3.09,0,0,0-.65-2.12,2.26,2.26,0,0,0-3.36,0,3.14,3.14,0,0,0-.65,2.12,3.21,3.21,0,0,0,.65,2.13,2.24,2.24,0,0,0,3.36,0Z"/><path class="cls-1" d="M30.75,0h5.92V19.16a.71.71,0,0,1-.71.72h-4.5a.71.71,0,0,1-.71-.72Z"/><path class="cls-1" d="M55,5.22V19.16a.71.71,0,0,1-.71.72H49.33v-1.4a5,5,0,0,1-1.83,1.25,6.13,6.13,0,0,1-2.23.41,5.8,5.8,0,0,1-4.38-1.7,7.09,7.09,0,0,1-1.65-5.13V5.22h5.93v7.05a3.66,3.66,0,0,0,.47,2.14,1.59,1.59,0,0,0,1.39.64,1.78,1.78,0,0,0,1.44-.71A3.55,3.55,0,0,0,49,12.11V5.22Z"/><path class="cls-1" d="M72.77,14h-10a2.48,2.48,0,0,0,1,1.27,3.52,3.52,0,0,0,1.83.44,4.59,4.59,0,0,0,1.59-.24,5.27,5.27,0,0,0,.93-.49.69.69,0,0,1,.89.1l2.19,2.25a.69.69,0,0,1,0,1,8.32,8.32,0,0,1-5.77,1.86,10.13,10.13,0,0,1-4.56-1,7.17,7.17,0,0,1-4.12-6.63,7.25,7.25,0,0,1,4-6.62,9.45,9.45,0,0,1,8.13-.08,6.89,6.89,0,0,1,2.86,2.6,7.7,7.7,0,0,1,1.06,4.1C72.85,12.62,72.82,13.1,72.77,14ZM63.49,9.59A2.43,2.43,0,0,0,62.7,11h4.62a2.55,2.55,0,0,0-.79-1.44A2.23,2.23,0,0,0,65,9.08,2.27,2.27,0,0,0,63.49,9.59Z"/><path class="cls-1" d="M88.93,6.59a6.77,6.77,0,0,1,1.61,4.93v7.64a.71.71,0,0,1-.71.72h-4.5a.71.71,0,0,1-.71-.72v-6.6c0-1.68-.59-2.52-1.76-2.52a2,2,0,0,0-1.61.71A3.39,3.39,0,0,0,80.63,13v6.17a.71.71,0,0,1-.71.72h-4.5a.71.71,0,0,1-.71-.72V5.22h5.63V6.67a5.59,5.59,0,0,1,1.94-1.29A6.67,6.67,0,0,1,84.67,5,5.73,5.73,0,0,1,88.93,6.59Z"/><path class="cls-1" d="M108.55,14h-10a2.48,2.48,0,0,0,1,1.27,3.52,3.52,0,0,0,1.83.44,4.59,4.59,0,0,0,1.59-.24,5.27,5.27,0,0,0,.93-.49.69.69,0,0,1,.89.1l2.18,2.24a.71.71,0,0,1-.06,1,8.34,8.34,0,0,1-5.71,1.81,10.13,10.13,0,0,1-4.56-1,7.22,7.22,0,0,1-4.12-6.63,7.25,7.25,0,0,1,4-6.62,9.45,9.45,0,0,1,8.13-.08,6.83,6.83,0,0,1,2.86,2.6,7.7,7.7,0,0,1,1.06,4.1C108.63,12.62,108.6,13.1,108.55,14ZM99.27,9.59A2.43,2.43,0,0,0,98.48,11h4.62a2.55,2.55,0,0,0-.79-1.44,2.23,2.23,0,0,0-1.52-.52A2.27,2.27,0,0,0,99.27,9.59Z"/></g></g></svg>